<svg xmlns="http://www.w3.org/2000/svg" viewBox="0 0 1200 1200" preserveAspectRatio="xMidYMid slice">
  <defs>
    <linearGradient id="bgGrad" x1="0%" y1="0%" x2="100%" y2="100%">
      <stop offset="0%" stop-color="#7c3aed"/>
      <stop offset="100%" stop-color="#38bdf8"/>
    </linearGradient>
    <linearGradient id="shapeGrad" x1="0%" y1="0%" x2="100%" y2="100%">
      <stop offset="0%" stop-color="#ffffff" stop-opacity="0.85"/>
      <stop offset="100%" stop-color="#ffffff" stop-opacity="0.6"/>
    </linearGradient>
  </defs>
  <rect width="1200" height="1200" rx="90" fill="url(#bgGrad)"/>
  <circle cx="900" cy="260" r="220" fill="rgba(255,255,255,0.18)"/>
  <circle cx="250" cy="300" r="120" fill="rgba(255,255,255,0.14)"/>
  <path d="M330 760c20 40 60 70 120 70s100-35 130-80c44-65 90-98 155-112 44-10 90-6 132 12 40 16 80 48 108 88 18 26 44 42 70 42 30 0 54-20 64-46 18-46 14-120-22-181-34-56-100-96-178-110-93-18-184 3-262 58-84 61-138 154-164 226-22 58-10 118 14 140z" fill="url(#shapeGrad)" opacity="0.8"/>
  <path d="M420 700c58-20 120-14 165 18 40 28 65 74 77 130 10 44 12 74 8 110-4 30-16 56-40 68-17 8-36 8-55 0-28-12-47-38-54-69-9-42-6-78-4-120 4-76 6-121-16-137-18-14-50-16-77-9-36 10-58 28-60 50-2 20 8 44 24 68 18 28 52 50 92 56 31 5 64 0 90-16" fill="rgba(255,255,255,0.94)"/>
  <path d="M560 460c20-40 88-66 160-54 56 10 102 44 130 88 24 38 34 82 26 124-10 56-44 100-88 120-42 18-90 18-130 0-60-26-104-84-116-150-10-50 2-104 18-128z" fill="rgba(255,255,255,0.9)"/>
  <circle cx="680" cy="330" r="60" fill="#ffffff" opacity="0.98"/>
  <path d="M450 620c0-40 58-70 110-74s106 18 140 56c32 36 40 78 36 126-4 42-18 80-42 110-22 28-56 46-92 52s-76 0-104-22c-25-20-40-50-46-80-8-38-8-78-4-108z" fill="rgba(255,255,255,0.85)"/>
  <path d="M600 670c28 0 50 18 60 40 8 18 10 40 0 58-14 26-36 34-58 34-18 0-36-10-50-24-26-26-34-70-18-104 8-16 20-30 38-34 8-2 18-2 28-2z" fill="#7c3aed" opacity="0.95"/>
  <path d="M840 840c0-20-24-36-54-36s-54 16-54 36 24 36 54 36 54-16 54-36z" fill="#ffffff" opacity="0.9"/>
  <rect x="160" y="140" width="120" height="280" rx="60" fill="#ffffff" opacity="0.1"/>
  <rect x="220" y="180" width="95" height="220" rx="45" fill="#ffffff" opacity="0.12"/>
</svg>